<svg width="36" height="36" viewBox="0 0 36 36" fill="none" xmlns="http://www.w3.org/2000/svg">
<path d="M25.5775 25.981V21.886H24.4225V26.4535L27.475 29.506L28.294 28.687L25.5775 25.981ZM16 15.1405L6.3625 9.56951L5.5285 10.024V10.7845L16.0135 16.8595L26.5 10.7845V10.018L25.6375 9.56951L16 15.1405ZM4 22.822V9.17201L16 2.28101L28 9.17801V17.041C27.517 16.871 27.027 16.746 26.53 16.666C26.032 16.587 25.522 16.5475 25 16.5475C22.355 16.5475 20.0975 17.4825 18.2275 19.3525C16.3575 21.2225 15.4225 23.48 15.4225 26.125C15.4225 26.609 15.4565 27.084 15.5245 27.55C15.5915 28.017 15.7015 28.4735 15.8545 28.9195L16.144 29.812L4 22.822ZM25 32.125C23.329 32.125 21.911 31.543 20.746 30.379C19.581 29.215 18.999 27.797 19 26.125C19 24.454 19.582 23.036 20.746 21.871C21.91 20.706 23.328 20.124 25 20.125C26.671 20.125 28.089 20.707 29.254 21.871C30.419 23.035 31.001 24.453 31 26.125C31 27.796 30.418 29.214 29.254 30.379C28.09 31.544 26.672 32.126 25 32.125Z" fill="#DCDCE4"/>
</svg>
