<svg width="24" height="24" viewBox="0 0 24 24" fill="none" xmlns="http://www.w3.org/2000/svg">
<path d="M8.5 12.5H15.5M8.5 15.5H12.5" stroke="#0094D6" stroke-width="1.5" stroke-linecap="round"/>
<path d="M5.5 5.9C5.5 5.06 5.5 4.64 5.663 4.319C5.80685 4.03651 6.03651 3.80685 6.319 3.663C6.639 3.5 7.059 3.5 7.9 3.5H12.506C12.873 3.5 13.056 3.5 13.229 3.541C13.382 3.578 13.529 3.639 13.662 3.721C13.814 3.814 13.943 3.944 14.202 4.203L17.797 7.797C18.057 8.057 18.187 8.187 18.279 8.337C18.361 8.472 18.422 8.618 18.459 8.771C18.5 8.944 18.5 9.127 18.5 9.494V18.1C18.5 18.94 18.5 19.36 18.337 19.681C18.1931 19.9635 17.9635 20.1931 17.681 20.337C17.361 20.5 16.941 20.5 16.1 20.5H7.9C7.06 20.5 6.64 20.5 6.319 20.337C6.03651 20.1931 5.80685 19.9635 5.663 19.681C5.5 19.361 5.5 18.941 5.5 18.1V5.9Z" stroke="#0094D6" stroke-width="1.5"/>
<path d="M12.5 3.5V7.1C12.5 7.94 12.5 8.36 12.664 8.681C12.8076 8.96334 13.0369 9.19298 13.319 9.337C13.639 9.5 14.059 9.5 14.9 9.5H18.5" stroke="#0094D6" stroke-width="1.5"/>
</svg>
