<svg width="24" height="24" viewBox="0 0 24 24" fill="none" xmlns="http://www.w3.org/2000/svg">
<path d="M7.50827 4.80356C9.43959 3.88647 13.6179 3.00083 18.349 6.03376C18.5675 6.16419 18.8291 6.20586 19.0783 6.14997C19.3276 6.09407 19.5449 5.94499 19.6844 5.73426C19.8239 5.52353 19.8745 5.2677 19.8257 5.02088C19.7768 4.77407 19.6322 4.55565 19.4225 4.41183C14.0148 0.946564 9.08928 1.90426 6.65316 3.0611C6.53161 3.11308 6.42199 3.18867 6.33087 3.28334C6.23975 3.37801 6.169 3.48981 6.12287 3.61202C6.07674 3.73424 6.05618 3.86436 6.06243 3.99459C6.06867 4.12481 6.10159 4.25245 6.1592 4.36986C6.21682 4.48726 6.29795 4.59201 6.39773 4.67783C6.4975 4.76364 6.61387 4.82875 6.73985 4.86925C6.86583 4.90975 6.99883 4.92481 7.13088 4.91352C7.26292 4.90223 7.39128 4.86483 7.50827 4.80356ZM5.26794 5.16384C5.5663 5.60928 5.44109 6.20931 4.9869 6.50409C4.35689 6.91023 3.62033 7.82076 3.33929 8.2924C3.27599 8.40601 3.19015 8.50596 3.08686 8.58634C2.98357 8.66672 2.86493 8.7259 2.73797 8.76036C2.61101 8.79482 2.47831 8.80387 2.34773 8.78697C2.21715 8.77007 2.09134 8.72757 1.97776 8.66198C1.86419 8.59639 1.76515 8.50904 1.68651 8.40512C1.60788 8.30119 1.55124 8.1828 1.51997 8.05696C1.4887 7.93111 1.48342 7.80037 1.50445 7.67249C1.52548 7.5446 1.57238 7.42216 1.64239 7.31243C2.01001 6.69668 2.93438 5.51495 3.9067 4.88609C4.12475 4.7457 4.39051 4.6961 4.64569 4.74817C4.90088 4.80023 5.12465 4.94972 5.26794 5.16384ZM12.3272 4.95291C12.195 4.94812 12.0632 4.9696 11.9396 5.01607C11.816 5.06254 11.7032 5.13304 11.6079 5.22335C11.5127 5.31367 11.4369 5.42194 11.3852 5.54172C11.3334 5.66149 11.3067 5.79029 11.3067 5.92043C11.3067 6.05057 11.3334 6.17938 11.3852 6.29915C11.4369 6.41892 11.5127 6.5272 11.6079 6.61751C11.7032 6.70783 11.816 6.77833 11.9396 6.82479C12.0632 6.87126 12.195 6.89274 12.3272 6.88795C14.3651 6.88795 19.2707 8.57277 20.5427 15.0814C20.5921 15.3334 20.7413 15.5556 20.9574 15.6994C21.1734 15.8431 21.4387 15.8965 21.6948 15.8479C21.9509 15.7992 22.1769 15.6525 22.323 15.44C22.4691 15.2274 22.5234 14.9665 22.474 14.7146C21.0008 7.17487 15.1749 4.95291 12.3272 4.95291ZM10.3466 5.95515C10.4354 6.1963 10.4233 6.46225 10.3129 6.69461C10.2025 6.92698 10.0029 7.10677 9.75792 7.19452C4.58998 9.04179 3.294 13.9023 3.79348 17.3414C3.81708 17.4694 3.8142 17.6009 3.785 17.7278C3.75581 17.8547 3.7009 17.9745 3.62355 18.0801C3.54621 18.1857 3.44802 18.2749 3.33486 18.3423C3.22169 18.4097 3.09587 18.454 2.96491 18.4725C2.83396 18.491 2.70055 18.4833 2.57267 18.45C2.44479 18.4166 2.32506 18.3582 2.22063 18.2783C2.1162 18.1984 2.02922 18.0986 1.96488 17.9849C1.90054 17.8712 1.86017 17.7459 1.84618 17.6165C1.26412 13.6115 2.7519 7.63865 9.08662 5.37608C9.33179 5.28876 9.60217 5.30069 9.8384 5.40926C10.0746 5.51782 10.2574 5.71415 10.3466 5.95515ZM9.20783 11.0122C7.09537 12.621 5.81937 16.0784 7.9598 20.2695C8.06657 20.4976 8.07908 20.7575 7.9947 20.9945C7.91031 21.2315 7.73563 21.4269 7.50752 21.5396C7.2794 21.6523 7.0157 21.6735 6.77206 21.5985C6.52841 21.5236 6.32388 21.3585 6.20163 21.1381C3.68692 16.2147 5.06415 11.721 8.00375 9.48199C9.45956 8.37363 11.2923 7.83386 13.1451 8.12864C15.0084 8.42603 16.7813 9.55143 18.1425 11.5677C18.2207 11.6733 18.2764 11.7934 18.3062 11.9208C18.336 12.0481 18.3392 12.1801 18.3158 12.3087C18.2923 12.4373 18.2427 12.5599 18.1698 12.6692C18.0968 12.7784 18.0022 12.872 17.8915 12.9443C17.7809 13.0166 17.6565 13.0661 17.5259 13.0899C17.3952 13.1136 17.261 13.1111 17.1314 13.0825C17.0018 13.0539 16.8794 12.9998 16.7716 12.9234C16.6638 12.847 16.5729 12.7499 16.5042 12.6381C15.3987 11.003 14.0761 10.2379 12.828 10.0388C11.5707 9.83834 10.2787 10.196 9.20783 11.0122ZM19.2107 14.8456C19.1845 14.5985 19.0627 14.3708 18.8706 14.2096C18.6784 14.0483 18.4306 13.9659 18.1784 13.9794C17.9262 13.9928 17.6889 14.1011 17.5156 14.2819C17.3423 14.4626 17.2463 14.702 17.2474 14.9504C17.3833 17.4135 18.9377 18.7406 19.8953 19.0446C20.1409 19.1135 20.4041 19.086 20.6293 18.9677C20.8546 18.8494 21.0243 18.6496 21.1026 18.4105C21.1809 18.1715 21.1617 17.9118 21.049 17.6864C20.9363 17.461 20.739 17.2875 20.4987 17.2025L20.4787 17.1947C20.4009 17.1571 20.3269 17.1123 20.2576 17.061C20.0951 16.9386 19.9504 16.7949 19.8274 16.6339C19.537 16.2592 19.2587 15.6828 19.2121 14.8456M13.3115 15.5439C13.2984 15.2962 13.1891 15.0629 13.0062 14.8921C12.8233 14.7213 12.5808 14.6261 12.3286 14.6261C12.0764 14.6261 11.8338 14.7213 11.6509 14.8921C11.468 15.0629 11.3587 15.2962 11.3456 15.5439C11.3456 16.9208 11.5187 18.003 11.941 19.0642C12.3539 20.1031 12.9892 21.0713 13.8203 22.2295C13.974 22.4312 14.2015 22.5661 14.4546 22.6054C14.7077 22.6447 14.9665 22.5854 15.1758 22.44C15.3852 22.2947 15.5286 22.0748 15.5757 21.827C15.6228 21.5792 15.5698 21.3232 15.428 21.1132C14.6062 19.9682 14.0934 19.1625 13.7724 18.358C13.4607 17.5759 13.3129 16.7466 13.3129 15.5439M11.8344 21.5259C9.12125 16.6994 10.0763 14.3596 11.0219 13.6036C12.0475 12.7835 13.6006 13.1451 14.0388 14.5364C14.1187 14.7945 14.1853 15.1103 14.2732 15.5256L14.3198 15.7444C14.425 16.2422 14.5556 16.8278 14.7567 17.4318C15.1603 18.6502 15.8635 19.9918 17.2834 21.0228C17.3868 21.1049 17.5059 21.1654 17.6338 21.201C17.7616 21.2365 17.8954 21.2462 18.0271 21.2295C18.1588 21.2128 18.2857 21.1701 18.4002 21.1039C18.5147 21.0377 18.6144 20.9494 18.6933 20.8443C18.7722 20.7392 18.8286 20.6195 18.8592 20.4923C18.8898 20.3652 18.8939 20.2333 18.8713 20.1046C18.8488 19.9759 18.7999 19.853 18.7278 19.7433C18.6556 19.6336 18.5616 19.5394 18.4515 19.4664C17.4685 18.7524 16.9531 17.8143 16.6267 16.8305C16.4716 16.3444 16.3444 15.8501 16.2458 15.35L16.2032 15.1496C16.127 14.7502 16.0319 14.3545 15.9182 13.9639C15.0391 11.1799 11.8131 10.4764 9.7779 12.1009C7.66144 13.791 7.27118 17.4121 10.1109 22.464C10.1702 22.5809 10.2529 22.6847 10.354 22.7694C10.4552 22.854 10.5727 22.9176 10.6996 22.9564C10.8264 22.9951 10.9599 23.0083 11.092 22.995C11.2241 22.9817 11.3521 22.9422 11.4683 22.8789C11.5845 22.8157 11.6865 22.73 11.7681 22.6269C11.8497 22.5239 11.9093 22.4057 11.9433 22.2794C11.9772 22.1531 11.9849 22.0213 11.9657 21.8921C11.9465 21.7628 11.901 21.6387 11.8318 21.5272" fill="#0094D6"/>
</svg>
