<svg width="24" height="24" viewBox="0 0 24 24" fill="none" xmlns="http://www.w3.org/2000/svg">
<g clip-path="url(#clip0_14_1370)">
<path fill-rule="evenodd" clip-rule="evenodd" d="M16.7143 1.28571C16.7143 0.944722 16.8497 0.617695 17.0909 0.376577C17.332 0.135459 17.659 0 18 0L21 0C22.656 0 24 1.344 24 3V6C24 6.34099 23.8645 6.66802 23.6234 6.90914C23.3823 7.15026 23.0553 7.28571 22.7143 7.28571C22.3733 7.28571 22.0463 7.15026 21.8051 6.90914C21.564 6.66802 21.4286 6.34099 21.4286 6V3C21.4286 2.88634 21.3834 2.77733 21.303 2.69695C21.2227 2.61658 21.1137 2.57143 21 2.57143H18C17.659 2.57143 17.332 2.43597 17.0909 2.19485C16.8497 1.95373 16.7143 1.62671 16.7143 1.28571ZM0 12C0 11.659 0.135459 11.332 0.376577 11.0909C0.617695 10.8497 0.944722 10.7143 1.28571 10.7143H22.7143C23.0553 10.7143 23.3823 10.8497 23.6234 11.0909C23.8645 11.332 24 11.659 24 12C24 12.341 23.8645 12.668 23.6234 12.9091C23.3823 13.1503 23.0553 13.2857 22.7143 13.2857H1.28571C0.944722 13.2857 0.617695 13.1503 0.376577 12.9091C0.135459 12.668 0 12.341 0 12ZM2.57143 3C2.57143 2.88634 2.61658 2.77733 2.69695 2.69695C2.77733 2.61658 2.88634 2.57143 3 2.57143H6C6.34099 2.57143 6.66802 2.43597 6.90914 2.19485C7.15026 1.95373 7.28571 1.62671 7.28571 1.28571C7.28571 0.944722 7.15026 0.617695 6.90914 0.376577C6.66802 0.135459 6.34099 0 6 0L3 0C2.20435 0 1.44129 0.31607 0.87868 0.87868C0.31607 1.44129 0 2.20435 0 3L0 6C0 6.34099 0.135459 6.66802 0.376577 6.90914C0.617695 7.15026 0.944722 7.28571 1.28571 7.28571C1.62671 7.28571 1.95373 7.15026 2.19485 6.90914C2.43597 6.66802 2.57143 6.34099 2.57143 6V3ZM22.7143 16.7143C23.0553 16.7143 23.3823 16.8497 23.6234 17.0909C23.8645 17.332 24 17.659 24 18V21C24 21.7957 23.6839 22.5587 23.1213 23.1213C22.5587 23.6839 21.7957 24 21 24H18C17.659 24 17.332 23.8645 17.0909 23.6234C16.8497 23.3823 16.7143 23.0553 16.7143 22.7143C16.7143 22.3733 16.8497 22.0463 17.0909 21.8051C17.332 21.564 17.659 21.4286 18 21.4286H21C21.1137 21.4286 21.2227 21.3834 21.303 21.303C21.3834 21.2227 21.4286 21.1137 21.4286 21V18C21.4286 17.659 21.564 17.332 21.8051 17.0909C22.0463 16.8497 22.3733 16.7143 22.7143 16.7143ZM2.57143 18C2.57143 17.659 2.43597 17.332 2.19485 17.0909C1.95373 16.8497 1.62671 16.7143 1.28571 16.7143C0.944722 16.7143 0.617695 16.8497 0.376577 17.0909C0.135459 17.332 0 17.659 0 18L0 21C0 22.656 1.344 24 3 24H6C6.34099 24 6.66802 23.8645 6.90914 23.6234C7.15026 23.3823 7.28571 23.0553 7.28571 22.7143C7.28571 22.3733 7.15026 22.0463 6.90914 21.8051C6.66802 21.564 6.34099 21.4286 6 21.4286H3C2.88634 21.4286 2.77733 21.3834 2.69695 21.303C2.61658 21.2227 2.57143 21.1137 2.57143 21V18Z" fill="#00C5FF"/>
</g>
<defs>
<clipPath id="clip0_14_1370">
<rect width="24" height="24" fill="white"/>
</clipPath>
</defs>
</svg>
