<svg width="24" height="24" viewBox="0 0 24 24" fill="none" xmlns="http://www.w3.org/2000/svg">
<path d="M11.2 12.8483L9.45175 11.1L8.5 12.0518L11.2 14.7518L16.6 9.35177L15.6483 8.40002L11.2 12.8483Z" fill="#0094D6"/>
<path d="M12.1 21L7.9312 18.8831C6.74275 18.2809 5.74891 17.3819 5.05633 16.2825C4.36374 15.1832 3.99857 13.9249 4 12.6429V4.28571C4.00036 3.94483 4.14271 3.618 4.3958 3.37695C4.6489 3.13591 4.99207 3.00034 5.35 3H18.85C19.2079 3.00034 19.5511 3.13591 19.8042 3.37695C20.0573 3.618 20.1996 3.94483 20.2 4.28571V12.6429C20.2014 13.9249 19.8363 15.1832 19.1437 16.2825C18.4511 17.3819 17.4572 18.2809 16.2688 18.8831L12.1 21ZM5.35 4.28571V12.6429C5.34888 13.6919 5.64775 14.7214 6.21452 15.6209C6.78129 16.5203 7.59456 17.2559 8.56705 17.7484L12.1 19.5426L15.6329 17.7491C16.6055 17.2564 17.4189 16.5208 17.9857 15.6212C18.5524 14.7216 18.8512 13.692 18.85 12.6429V4.28571H5.35Z" fill="#0094D6"/>
</svg>
