<svg width="24" height="24" viewBox="0 0 24 24" fill="none" xmlns="http://www.w3.org/2000/svg">
<path d="M20.4605 3.40204L7.2394 14.4123M10.3542 17.5388L13.3719 20.5406C13.5573 20.7304 13.789 20.8685 14.0441 20.9414C14.2993 21.0143 14.5691 21.0193 14.8268 20.9559C15.0859 20.8956 15.3251 20.7697 15.5214 20.5902C15.7177 20.4108 15.8645 20.1839 15.9477 19.9313L20.9025 5.08848C21.0062 4.81048 21.0277 4.50857 20.9645 4.21869C20.9014 3.92881 20.7562 3.66317 20.5463 3.45339C20.3364 3.24362 20.0705 3.09854 19.7805 3.03543C19.4904 2.97232 19.1882 2.99384 18.9101 3.09743L4.05674 8.05013C3.79532 8.13915 3.56244 8.29634 3.38218 8.50544C3.20192 8.71454 3.08083 8.96796 3.03142 9.23949C2.98039 9.48663 2.99166 9.74257 3.06422 9.98427C3.13678 10.226 3.26835 10.4458 3.44709 10.6241L7.2394 14.4137L7.1147 19.2127L10.3542 17.5388Z" stroke="#00C5FF" stroke-width="1.5" stroke-linecap="round" stroke-linejoin="round"/>
</svg>
