<svg width="36" height="36" viewBox="0 0 36 36" fill="none" xmlns="http://www.w3.org/2000/svg">
<path fill-rule="evenodd" clip-rule="evenodd" d="M20.2271 5.2052C19.7276 5 19.0931 5 17.8254 5C16.5578 5 15.9246 5 15.4238 5.2052C14.7588 5.47818 14.2295 6.00408 13.9523 6.66725C13.8254 6.9683 13.7768 7.32065 13.7565 7.8323C13.7475 8.20301 13.6441 8.56531 13.4561 8.88492C13.268 9.20454 13.0016 9.47091 12.6819 9.65885C12.3562 9.83989 11.9901 9.9358 11.6175 9.93768C11.2449 9.93957 10.8778 9.84738 10.5503 9.66965C10.094 9.42935 9.76323 9.29705 9.43653 9.25385C8.72177 9.16 7.99887 9.35213 7.42503 9.78845C6.99573 10.1151 6.67848 10.6606 6.04533 11.75C5.41083 12.8394 5.09493 13.3835 5.02338 13.9167C4.92888 14.6268 5.12328 15.345 5.56338 15.9134C5.76318 16.1726 6.04533 16.3899 6.48138 16.6627C7.12533 17.0636 7.53843 17.7467 7.53843 18.5C7.53843 19.2533 7.12533 19.9364 6.48273 20.336C6.04533 20.6101 5.76318 20.8274 5.56203 21.0866C5.34479 21.3673 5.18533 21.6883 5.09288 22.031C5.00043 22.3737 4.9768 22.7314 5.02338 23.0833C5.09493 23.6152 5.41083 24.1606 6.04533 25.25C6.67983 26.3395 6.99573 26.8835 7.42503 27.2115C7.99743 27.6476 8.72103 27.8393 9.43653 27.7462C9.76323 27.703 10.094 27.5707 10.5503 27.3304C10.878 27.1524 11.2453 27.0601 11.6182 27.0619C11.991 27.0638 12.3574 27.1599 12.6833 27.3412C13.3394 27.7192 13.7282 28.4144 13.7565 29.1677C13.7768 29.6807 13.8254 30.0317 13.9523 30.3328C14.2277 30.9942 14.7569 31.5208 15.4238 31.7948C15.9233 32 16.5578 32 17.8254 32C19.0931 32 19.7276 32 20.2271 31.7948C20.892 31.5218 21.4213 30.9959 21.6986 30.3328C21.8255 30.0317 21.8741 29.6807 21.8943 29.1677C21.9213 28.4144 22.3115 27.7178 22.9689 27.3412C23.2946 27.1601 23.6607 27.0642 24.0334 27.0623C24.406 27.0604 24.7731 27.1526 25.1006 27.3304C25.5569 27.5707 25.8876 27.703 26.2143 27.7462C26.9298 27.8407 27.6534 27.6476 28.2258 27.2115C28.6551 26.8848 28.9724 26.3395 29.6055 25.25C30.24 24.1606 30.5559 23.6165 30.6275 23.0833C30.6739 22.7313 30.65 22.3736 30.5573 22.0309C30.4646 21.6882 30.3049 21.3672 30.0875 21.0866C29.8877 20.8274 29.6055 20.6101 29.1695 20.3373C28.5255 19.9364 28.1124 19.2533 28.1124 18.5C28.1124 17.7467 28.5255 17.0636 29.1681 16.664C29.6055 16.39 29.8877 16.1726 30.0888 15.9134C30.3061 15.6327 30.4655 15.3117 30.558 14.969C30.6504 14.6263 30.674 14.2686 30.6275 13.9167C30.5559 13.3848 30.24 12.8394 29.6055 11.75C28.971 10.6606 28.6551 10.1165 28.2258 9.78845C27.652 9.35213 26.9291 9.16 26.2143 9.25385C25.8876 9.29705 25.5569 9.42935 25.1006 9.66965C24.7729 9.84762 24.4056 9.93994 24.0327 9.93806C23.6598 9.93617 23.2934 9.84013 22.9676 9.65885C22.6482 9.47074 22.382 9.2043 22.1942 8.88469C22.0064 8.56509 21.9032 8.20289 21.8943 7.8323C21.8741 7.3193 21.8255 6.9683 21.6986 6.66725C21.5614 6.33884 21.3608 6.04069 21.1083 5.78983C20.8558 5.53896 20.5564 5.34031 20.2271 5.2052ZM17.8254 22.55C20.0799 22.55 21.9065 20.7369 21.9065 18.5C21.9065 16.2631 20.0786 14.45 17.8254 14.45C15.5709 14.45 13.7444 16.2631 13.7444 18.5C13.7444 20.7369 15.5723 22.55 17.8254 22.55Z" fill="#DCDCE4"/>
</svg>
