<svg width="24" height="24" viewBox="0 0 24 24" fill="none" xmlns="http://www.w3.org/2000/svg">
<path d="M8.58431 8.73594L11.1823 3.50394C11.2579 3.35253 11.3742 3.22517 11.5182 3.13616C11.6622 3.04715 11.8281 3 11.9973 3C12.1666 3 12.3325 3.04715 12.4764 3.13616C12.6204 3.22517 12.7367 3.35253 12.8123 3.50394L15.4103 8.73594L21.2183 9.57994C21.3858 9.60317 21.5435 9.67303 21.6732 9.78155C21.8029 9.89007 21.8995 10.0329 21.952 10.1937C22.0044 10.3545 22.0106 10.5268 21.9698 10.6909C21.929 10.855 21.8429 11.0044 21.7213 11.1219L17.5193 15.1919L18.5113 20.9419C18.6383 21.6799 17.8583 22.2419 17.1913 21.8939L11.9973 19.1779L6.80231 21.8939C6.13631 22.2429 5.35631 21.6799 5.48331 20.9409L6.47531 15.1909L2.27331 11.1209C2.15229 11.0033 2.06671 10.8541 2.02627 10.6903C1.98584 10.5264 1.99218 10.3545 2.04458 10.1941C2.09697 10.0337 2.19332 9.89116 2.32268 9.78277C2.45203 9.67439 2.60919 9.60446 2.77631 9.58094L8.58431 8.73594Z" stroke="#0094D6" stroke-width="1.5" stroke-linecap="round" stroke-linejoin="round"/>
</svg>
