<svg width="24" height="24" viewBox="0 0 24 24" fill="none" xmlns="http://www.w3.org/2000/svg">
<path d="M13.9016 22L13.8378 19.5026H12.2513C9.95781 19.5026 8.0094 18.7006 6.40608 17.0965C4.80203 15.4932 4 13.5448 4 11.2513C4 8.95781 4.80203 7.0094 6.40608 5.40608C8.0094 3.80203 9.95781 3 12.2513 3C13.3977 3 14.4715 3.2149 15.4726 3.6447C16.473 4.07377 17.3469 4.66163 18.0943 5.40828C18.841 6.15567 19.4288 7.02957 19.8579 8.02999C20.2877 9.03115 20.5026 10.1049 20.5026 11.2513C20.5026 12.3727 20.3379 13.4498 20.0086 14.4825C19.6786 15.5145 19.2231 16.4903 18.6422 17.4101C18.0599 18.3298 17.3631 19.177 16.5519 19.9515C15.7407 20.726 14.8572 21.4085 13.9016 21.9989M15.0017 19.8877C16.3036 18.7875 17.3627 17.4996 18.179 16.0239C18.9954 14.5482 19.4032 12.9573 19.4024 11.2513C19.4024 9.25265 18.7101 7.56132 17.3253 6.1773C15.9406 4.79328 14.2492 4.10091 12.2513 4.10017C10.2527 4.10017 8.56132 4.79255 7.1773 6.1773C5.79328 7.56205 5.10091 9.25339 5.10017 11.2513C5.10017 13.25 5.79255 14.9417 7.1773 16.3264C8.56205 17.7112 10.2534 18.4032 12.2513 18.4024H15.0017V19.8877ZM12.2876 16.8303C12.515 16.8303 12.7068 16.7522 12.863 16.5959C13.0192 16.439 13.0973 16.2472 13.0973 16.0206C13.0973 15.7932 13.0192 15.6014 12.863 15.4452C12.706 15.2882 12.5142 15.2097 12.2876 15.2097C12.0602 15.2097 11.8684 15.2882 11.7122 15.4452C11.5553 15.6014 11.4768 15.7932 11.4768 16.0206C11.4768 16.2479 11.5553 16.4397 11.7122 16.5959C11.8684 16.7522 12.0602 16.8303 12.2876 16.8303ZM11.8068 13.6123H12.7805C12.8084 13.1612 12.8949 12.8044 13.0401 12.5418C13.1854 12.2792 13.5301 11.8758 14.0743 11.3316C14.3904 11.0162 14.6409 10.6939 14.8257 10.3646C15.0105 10.036 15.103 9.65862 15.103 9.23248C15.103 8.43889 14.829 7.81546 14.2811 7.36219C13.7332 6.90818 13.0706 6.68118 12.2931 6.68118C11.6139 6.68118 11.0382 6.86711 10.5658 7.23897C10.0928 7.61083 9.74621 8.0542 9.52617 8.56908L10.4316 8.92003C10.5798 8.59438 10.7961 8.2977 11.0807 8.02999C11.366 7.76302 11.7702 7.62953 12.2931 7.62953C12.9158 7.62953 13.3753 7.79859 13.6716 8.13671C13.9687 8.47556 14.1172 8.84522 14.1172 9.24569C14.1172 9.61388 14.0218 9.92523 13.8312 10.1797C13.6405 10.4342 13.3959 10.7111 13.0973 11.0104C12.5693 11.4754 12.222 11.8934 12.0555 12.2646C11.8897 12.6342 11.8068 13.0835 11.8068 13.6123Z" fill="#0094D6"/>
<path d="M13.9016 22L13.8378 19.5026H12.2513C9.95781 19.5026 8.0094 18.7006 6.40608 17.0965C4.80203 15.4932 4 13.5448 4 11.2513C4 8.95781 4.80203 7.0094 6.40608 5.40608C8.0094 3.80203 9.95781 3 12.2513 3C13.3977 3 14.4715 3.2149 15.4726 3.6447C16.473 4.07377 17.3469 4.66163 18.0943 5.40828C18.841 6.15567 19.4288 7.02957 19.8579 8.02999C20.2877 9.03115 20.5026 10.1049 20.5026 11.2513C20.5026 12.3727 20.3379 13.4498 20.0086 14.4825C19.6786 15.5145 19.2231 16.4903 18.6422 17.4101C18.0599 18.3298 17.3631 19.177 16.5519 19.9515C15.7407 20.726 14.8572 21.4085 13.9016 21.9989M15.0017 19.8877C16.3036 18.7875 17.3627 17.4996 18.179 16.0239C18.9954 14.5482 19.4032 12.9573 19.4024 11.2513C19.4024 9.25265 18.7101 7.56132 17.3253 6.1773C15.9406 4.79328 14.2492 4.10091 12.2513 4.10017C10.2527 4.10017 8.56132 4.79255 7.1773 6.1773C5.79328 7.56205 5.10091 9.25339 5.10017 11.2513C5.10017 13.25 5.79255 14.9417 7.1773 16.3264C8.56205 17.7112 10.2534 18.4032 12.2513 18.4024H15.0017V19.8877ZM12.2876 16.8303C12.515 16.8303 12.7068 16.7522 12.863 16.5959C13.0192 16.439 13.0973 16.2472 13.0973 16.0206C13.0973 15.7932 13.0192 15.6014 12.863 15.4452C12.706 15.2882 12.5142 15.2097 12.2876 15.2097C12.0602 15.2097 11.8684 15.2882 11.7122 15.4452C11.5553 15.6014 11.4768 15.7932 11.4768 16.0206C11.4768 16.2479 11.5553 16.4397 11.7122 16.5959C11.8684 16.7522 12.0602 16.8303 12.2876 16.8303ZM11.8068 13.6123H12.7805C12.8084 13.1612 12.8949 12.8044 13.0401 12.5418C13.1854 12.2792 13.5301 11.8758 14.0743 11.3316C14.3904 11.0162 14.6409 10.6939 14.8257 10.3646C15.0105 10.036 15.103 9.65862 15.103 9.23248C15.103 8.43889 14.829 7.81546 14.2811 7.36219C13.7332 6.90818 13.0706 6.68118 12.2931 6.68118C11.6139 6.68118 11.0382 6.86711 10.5658 7.23897C10.0928 7.61083 9.74621 8.0542 9.52617 8.56908L10.4316 8.92003C10.5798 8.59438 10.7961 8.2977 11.0807 8.02999C11.366 7.76302 11.7702 7.62953 12.2931 7.62953C12.9158 7.62953 13.3753 7.79859 13.6716 8.13671C13.9687 8.47556 14.1172 8.84522 14.1172 9.24569C14.1172 9.61388 14.0218 9.92523 13.8312 10.1797C13.6405 10.4342 13.3959 10.7111 13.0973 11.0104C12.5693 11.4754 12.222 11.8934 12.0555 12.2646C11.8897 12.6342 11.8068 13.0835 11.8068 13.6123Z" stroke="#0094D6" stroke-width="0.5"/>
</svg>
