<svg width="24" height="24" viewBox="0 0 24 24" fill="none" xmlns="http://www.w3.org/2000/svg">
<path d="M11.5696 21L3.00012 16.2505V6.7495L11.5696 2L20.139 6.7495V16.2505L11.5696 21ZM8.74267 9.34755C9.09015 8.91875 9.50955 8.58202 10.0009 8.33737C10.4922 8.09339 11.0151 7.9714 11.5696 7.9714C12.1241 7.9714 12.647 8.09339 13.1383 8.33737C13.6289 8.58202 14.0483 8.91875 14.3965 9.34755L18.5451 7.03884L11.5696 3.15536L4.59303 7.03884L8.74267 9.34755ZM11.0655 19.5613V15.0185C10.1971 14.8612 9.47594 14.4536 8.90196 13.7956C8.32797 13.1376 8.04098 12.3724 8.04098 11.5C8.04098 11.2762 8.05913 11.0651 8.09542 10.8669C8.13172 10.6686 8.18784 10.466 8.26379 10.2589L4.00829 7.87462V15.6476L11.0655 19.5613ZM11.5696 14.0204C12.2793 14.0204 12.8768 13.7778 13.3621 13.2925C13.8474 12.8073 14.09 12.2098 14.09 11.5C14.09 10.7902 13.8474 10.1927 13.3621 9.70747C12.8768 9.2222 12.2793 8.97957 11.5696 8.97957C10.8598 8.97957 10.2623 9.2222 9.77705 9.70747C9.29179 10.1927 9.04915 10.7902 9.04915 11.5C9.04915 12.2098 9.29179 12.8073 9.77705 13.2925C10.2623 13.7778 10.8598 14.0204 11.5696 14.0204ZM12.0737 19.5613L19.1309 15.6466V7.87361L14.8754 10.2589C14.9513 10.466 15.0074 10.6686 15.0437 10.8669C15.08 11.0651 15.0982 11.2762 15.0982 11.5C15.0982 12.3724 14.8112 13.1376 14.2372 13.7956C13.6632 14.4536 12.942 14.8612 12.0737 15.0185V19.5613Z" fill="#00C5FF" stroke="#00C5FF" stroke-width="0.5"/>
</svg>
