<svg width="24" height="24" viewBox="0 0 24 24" fill="none" xmlns="http://www.w3.org/2000/svg">
<path d="M12.25 3.50073C11.7846 3.50059 11.3306 3.64478 10.9506 3.91342C10.5705 4.18206 10.2831 4.56195 10.128 5.00073C10.0594 5.18516 9.921 5.33522 9.74273 5.41856C9.56447 5.50191 9.36059 5.51185 9.17506 5.44624C8.98954 5.38064 8.83722 5.24475 8.75097 5.06787C8.66472 4.891 8.65144 4.68731 8.714 4.50073C8.97255 3.76939 9.45148 3.1362 10.0848 2.68834C10.7182 2.24049 11.4748 2 12.2505 2C13.0262 2 13.7828 2.24049 14.4162 2.68834C15.0495 3.1362 15.5284 3.76939 15.787 4.50073C15.8533 4.68837 15.8424 4.89467 15.7566 5.07423C15.6708 5.2538 15.5171 5.39193 15.3295 5.45823C15.1419 5.52454 14.9356 5.51359 14.756 5.42779C14.5764 5.34199 14.4383 5.18837 14.372 5.00073C14.2167 4.56203 13.9293 4.18223 13.5493 3.9136C13.1693 3.64498 12.7154 3.50074 12.25 3.50073ZM3 6.75073C3 6.55182 3.07902 6.36105 3.21967 6.2204C3.36032 6.07975 3.55109 6.00073 3.75 6.00073H20.75C20.9489 6.00073 21.1397 6.07975 21.2803 6.2204C21.421 6.36105 21.5 6.55182 21.5 6.75073C21.5 6.94964 21.421 7.14041 21.2803 7.28106C21.1397 7.42171 20.9489 7.50073 20.75 7.50073H3.75C3.55109 7.50073 3.36032 7.42171 3.21967 7.28106C3.07902 7.14041 3 6.94964 3 6.75073ZM6.165 9.20073C6.15174 9.00222 6.06016 8.8171 5.91041 8.68611C5.76067 8.55511 5.56501 8.48897 5.3665 8.50223C5.16799 8.51549 4.98287 8.60707 4.85188 8.75682C4.72088 8.90657 4.65474 9.10222 4.668 9.30073L5.132 16.2527C5.217 17.5347 5.286 18.5707 5.448 19.3847C5.617 20.2297 5.903 20.9357 6.495 21.4887C7.086 22.0427 7.81 22.2817 8.665 22.3927C9.487 22.5007 10.525 22.5007 11.811 22.5007H12.69C13.975 22.5007 15.014 22.5007 15.836 22.3927C16.69 22.2817 17.414 22.0427 18.006 21.4887C18.597 20.9357 18.883 20.2287 19.052 19.3847C19.214 18.5707 19.282 17.5347 19.368 16.2527L19.832 9.30073C19.8453 9.10222 19.7791 8.90657 19.6481 8.75682C19.5171 8.60707 19.332 8.51549 19.1335 8.50223C18.935 8.48897 18.7393 8.55511 18.5896 8.68611C18.4398 8.8171 18.3483 9.00222 18.335 9.20073L17.875 16.1007C17.785 17.4477 17.721 18.3857 17.581 19.0907C17.444 19.7757 17.254 20.1377 16.981 20.3937C16.707 20.6497 16.333 20.8157 15.641 20.9057C14.928 20.9987 13.988 21.0007 12.637 21.0007H11.863C10.513 21.0007 9.573 20.9987 8.859 20.9057C8.167 20.8157 7.793 20.6497 7.519 20.3937C7.246 20.1377 7.056 19.7757 6.919 19.0907C6.779 18.3857 6.715 17.4477 6.625 16.1007L6.165 9.20073Z" fill="#0094D6"/>
<path d="M9.67498 11.0047C9.87282 10.9849 10.0704 11.0444 10.2244 11.1703C10.3783 11.2961 10.476 11.4779 10.496 11.6757L10.996 16.6757C11.0106 16.8708 10.9485 17.0639 10.8228 17.2138C10.6971 17.3637 10.5178 17.4585 10.3231 17.4781C10.1285 17.4977 9.93387 17.4404 9.78084 17.3185C9.62781 17.1967 9.52846 17.0198 9.50398 16.8257L9.00398 11.8257C8.98416 11.6279 9.0437 11.4303 9.16953 11.2763C9.29535 11.1224 9.47716 11.0247 9.67498 11.0047ZM15.496 11.8257C15.5106 11.6306 15.4485 11.4376 15.3228 11.2877C15.1971 11.1378 15.0178 11.0429 14.8231 11.0233C14.6285 11.0038 14.4339 11.061 14.2808 11.1829C14.1278 11.3048 14.0285 11.4816 14.004 11.6757L13.504 16.6757C13.4893 16.8708 13.5515 17.0639 13.6772 17.2138C13.8029 17.3637 13.9822 17.4585 14.1769 17.4781C14.3715 17.4977 14.5661 17.4404 14.7191 17.3185C14.8722 17.1967 14.9715 17.0198 14.996 16.8257L15.496 11.8257Z" fill="#0094D6"/>
</svg>
