<svg width="36" height="36" viewBox="0 0 36 36" fill="none" xmlns="http://www.w3.org/2000/svg">
<path fill-rule="evenodd" clip-rule="evenodd" d="M30.613 13.1487C30.5335 13.1429 30.4453 13.1429 30.3528 13.1429H26.7024C23.7126 13.1429 21.1552 15.4687 21.1552 18.5001C21.1552 21.5315 23.7141 23.8572 26.7024 23.8572H30.3528C30.4453 23.8572 30.5335 23.8572 30.6159 23.8515C31.2304 23.8149 31.8104 23.5588 32.2479 23.1309C32.6855 22.703 32.9507 22.1326 32.9941 21.5258C32.9999 21.4401 32.9999 21.3472 32.9999 21.2615V15.7387C32.9999 15.6529 32.9999 15.5601 32.9941 15.4744C32.9507 14.8676 32.6855 14.2971 32.2479 13.8693C31.8104 13.4414 31.2304 13.1853 30.6159 13.1487M26.3829 19.9287C27.152 19.9287 27.7751 19.2887 27.7751 18.5001C27.7751 17.7115 27.152 17.0715 26.3829 17.0715C25.6123 17.0715 24.9892 17.7115 24.9892 18.5001C24.9892 19.2887 25.6123 19.9287 26.3829 19.9287Z" fill="#DCDCE4"/>
<path fill-rule="evenodd" clip-rule="evenodd" d="M30.35 26C30.4 25.998 30.4497 26.0077 30.4952 26.0283C30.5407 26.0489 30.5806 26.0798 30.6117 26.1185C30.6429 26.1572 30.6643 26.2025 30.6744 26.251C30.6844 26.2994 30.6827 26.3495 30.6695 26.3971C30.3804 27.4143 29.9192 28.2829 29.1804 29.0114C28.0976 30.0829 26.7256 30.5557 25.0312 30.7814C23.3831 31 21.2796 31 18.6224 31H15.569C12.9118 31 10.8069 31 9.16019 30.7814C7.46581 30.5557 6.09383 30.0814 5.01099 29.0129C3.92959 27.9429 3.44962 26.5871 3.22119 24.9129C3 23.2843 3 21.2057 3 18.58V18.42C3 15.7943 3 13.7143 3.22119 12.0857C3.44962 10.4114 3.92959 9.05571 5.01099 7.98571C6.09383 6.91714 7.46581 6.44286 9.16019 6.21714C10.8083 6 12.9118 6 15.569 6H18.6224C21.2796 6 23.3846 6 25.0312 6.21857C26.7256 6.44429 28.0976 6.91857 29.1804 7.98714C29.9192 8.71857 30.3804 9.58571 30.6695 10.6029C30.6827 10.6505 30.6844 10.7006 30.6744 10.749C30.6643 10.7975 30.6429 10.8429 30.6117 10.8815C30.5806 10.9202 30.5407 10.9511 30.4952 10.9717C30.4497 10.9923 30.4 11.002 30.35 11H26.701C22.5995 11 18.9853 14.2 18.9853 18.5C18.9853 22.8 22.5995 26 26.701 26H30.35ZM8.42143 11.7143C8.13386 11.7143 7.85806 11.8272 7.65472 12.0281C7.45138 12.229 7.33714 12.5016 7.33714 12.7857C7.33714 13.0699 7.45138 13.3424 7.65472 13.5433C7.85806 13.7443 8.13386 13.8571 8.42143 13.8571H14.2043C14.4918 13.8571 14.7676 13.7443 14.971 13.5433C15.1743 13.3424 15.2886 13.0699 15.2886 12.7857C15.2886 12.5016 15.1743 12.229 14.971 12.0281C14.7676 11.8272 14.4918 11.7143 14.2043 11.7143H8.42143Z" fill="#DCDCE4"/>
</svg>
